<svg xmlns="http://www.w3.org/2000/svg" xmlns:xlink="http://www.w3.org/1999/xlink" width="500" zoomAndPan="magnify" viewBox="0 0 375 374.999991" height="500" preserveAspectRatio="xMidYMid meet" version="1.0"><defs><g/></defs><rect x="-37.5" width="450" fill="#ffffff" y="-37.499999" height="449.999989" fill-opacity="1"/><rect x="-37.5" width="450" fill="#292929" y="-37.499999" height="449.999989" fill-opacity="1"/><g fill="#e4e2dd" fill-opacity="1"><g transform="translate(104.161764, 177.398763)"><g><path d="M 16.78125 -12.8125 C 18.15625 -11.3125 18.84375 -9.476562 18.84375 -7.3125 C 18.84375 -5.144531 18.15625 -3.3125 16.78125 -1.8125 C 15.414062 -0.320312 13.675781 0.421875 11.5625 0.421875 C 9.625 0.421875 8.023438 -0.269531 6.765625 -1.65625 L 6.71875 -1.65625 L 6.71875 0 L 1.71875 0 L 1.71875 -24.5625 L 6.765625 -24.5625 L 6.765625 -13.25 C 8.023438 -14.46875 9.625 -15.078125 11.5625 -15.078125 C 13.675781 -15.078125 15.414062 -14.320312 16.78125 -12.8125 Z M 12.53125 -4.84375 C 13.164062 -5.476562 13.484375 -6.300781 13.484375 -7.3125 C 13.484375 -8.320312 13.15625 -9.148438 12.5 -9.796875 C 11.84375 -10.441406 11.023438 -10.765625 10.046875 -10.765625 C 9.097656 -10.765625 8.296875 -10.441406 7.640625 -9.796875 C 6.984375 -9.148438 6.65625 -8.320312 6.65625 -7.3125 C 6.65625 -6.320312 6.972656 -5.503906 7.609375 -4.859375 C 8.242188 -4.210938 9.054688 -3.890625 10.046875 -3.890625 C 11.078125 -3.890625 11.90625 -4.207031 12.53125 -4.84375 Z M 12.53125 -4.84375 "/></g></g></g><g fill="#e4e2dd" fill-opacity="1"><g transform="translate(121.238814, 177.398763)"><g><path d="M 2.703125 -1.8125 C 1.335938 -3.3125 0.65625 -5.144531 0.65625 -7.3125 C 0.65625 -9.476562 1.335938 -11.3125 2.703125 -12.8125 C 4.078125 -14.320312 5.820312 -15.078125 7.9375 -15.078125 C 9.882812 -15.078125 11.484375 -14.46875 12.734375 -13.25 L 12.734375 -14.65625 L 17.796875 -14.65625 L 17.796875 0 L 12.796875 0 L 12.796875 -1.65625 L 12.734375 -1.65625 C 11.484375 -0.269531 9.882812 0.421875 7.9375 0.421875 C 5.820312 0.421875 4.078125 -0.320312 2.703125 -1.8125 Z M 7.015625 -9.796875 C 6.359375 -9.148438 6.03125 -8.320312 6.03125 -7.3125 C 6.03125 -6.300781 6.34375 -5.476562 6.96875 -4.84375 C 7.59375 -4.207031 8.421875 -3.890625 9.453125 -3.890625 C 10.441406 -3.890625 11.253906 -4.210938 11.890625 -4.859375 C 12.535156 -5.503906 12.859375 -6.320312 12.859375 -7.3125 C 12.859375 -8.320312 12.523438 -9.148438 11.859375 -9.796875 C 11.203125 -10.441406 10.398438 -10.765625 9.453125 -10.765625 C 8.484375 -10.765625 7.671875 -10.441406 7.015625 -9.796875 Z M 7.015625 -9.796875 "/></g></g></g><g fill="#e4e2dd" fill-opacity="1"><g transform="translate(138.315865, 177.398763)"><g><path d="M 9.515625 -10.9375 C 8.554688 -10.9375 7.734375 -10.582031 7.046875 -9.875 C 6.367188 -9.175781 6.03125 -8.332031 6.03125 -7.34375 C 6.03125 -6.332031 6.367188 -5.472656 7.046875 -4.765625 C 7.734375 -4.066406 8.554688 -3.71875 9.515625 -3.71875 C 9.972656 -3.71875 10.40625 -3.773438 10.8125 -3.890625 C 11.21875 -4.003906 11.515625 -4.117188 11.703125 -4.234375 L 11.96875 -4.40625 L 13.6875 -0.890625 C 13.550781 -0.796875 13.363281 -0.675781 13.125 -0.53125 C 12.882812 -0.382812 12.335938 -0.191406 11.484375 0.046875 C 10.640625 0.296875 9.734375 0.421875 8.765625 0.421875 C 6.617188 0.421875 4.726562 -0.332031 3.09375 -1.84375 C 1.46875 -3.351562 0.65625 -5.164062 0.65625 -7.28125 C 0.65625 -9.414062 1.46875 -11.25 3.09375 -12.78125 C 4.726562 -14.3125 6.617188 -15.078125 8.765625 -15.078125 C 9.734375 -15.078125 10.628906 -14.960938 11.453125 -14.734375 C 12.273438 -14.503906 12.859375 -14.273438 13.203125 -14.046875 L 13.6875 -13.703125 L 11.96875 -10.25 C 11.34375 -10.707031 10.523438 -10.9375 9.515625 -10.9375 Z M 9.515625 -10.9375 "/></g></g></g><g fill="#e4e2dd" fill-opacity="1"><g transform="translate(149.909673, 177.398763)"><g><path d="M 18.453125 -14.65625 L 11.484375 -7.65625 L 19.140625 0 L 12.625 0 L 6.765625 -5.859375 L 6.765625 0 L 1.71875 0 L 1.71875 -24.5625 L 6.765625 -24.5625 L 6.765625 -9.546875 L 11.875 -14.65625 Z M 18.453125 -14.65625 "/></g></g></g><g fill="#e4e2dd" fill-opacity="1"><g transform="translate(165.930056, 177.398763)"><g/></g></g><g fill="#e4e2dd" fill-opacity="1"><g transform="translate(171.298096, 177.398763)"><g><path d="M 9.515625 -10.9375 C 8.554688 -10.9375 7.734375 -10.582031 7.046875 -9.875 C 6.367188 -9.175781 6.03125 -8.332031 6.03125 -7.34375 C 6.03125 -6.332031 6.367188 -5.472656 7.046875 -4.765625 C 7.734375 -4.066406 8.554688 -3.71875 9.515625 -3.71875 C 9.972656 -3.71875 10.40625 -3.773438 10.8125 -3.890625 C 11.21875 -4.003906 11.515625 -4.117188 11.703125 -4.234375 L 11.96875 -4.40625 L 13.6875 -0.890625 C 13.550781 -0.796875 13.363281 -0.675781 13.125 -0.53125 C 12.882812 -0.382812 12.335938 -0.191406 11.484375 0.046875 C 10.640625 0.296875 9.734375 0.421875 8.765625 0.421875 C 6.617188 0.421875 4.726562 -0.332031 3.09375 -1.84375 C 1.46875 -3.351562 0.65625 -5.164062 0.65625 -7.28125 C 0.65625 -9.414062 1.46875 -11.25 3.09375 -12.78125 C 4.726562 -14.3125 6.617188 -15.078125 8.765625 -15.078125 C 9.734375 -15.078125 10.628906 -14.960938 11.453125 -14.734375 C 12.273438 -14.503906 12.859375 -14.273438 13.203125 -14.046875 L 13.6875 -13.703125 L 11.96875 -10.25 C 11.34375 -10.707031 10.523438 -10.9375 9.515625 -10.9375 Z M 9.515625 -10.9375 "/></g></g></g><g fill="#e4e2dd" fill-opacity="1"><g transform="translate(182.891904, 177.398763)"><g><path d="M 3.09375 -1.734375 C 1.46875 -3.179688 0.65625 -5.039062 0.65625 -7.3125 C 0.65625 -9.582031 1.5 -11.441406 3.1875 -12.890625 C 4.882812 -14.347656 6.984375 -15.078125 9.484375 -15.078125 C 11.941406 -15.078125 14.007812 -14.34375 15.6875 -12.875 C 17.375 -11.414062 18.21875 -9.5625 18.21875 -7.3125 C 18.21875 -5.0625 17.394531 -3.207031 15.75 -1.75 C 14.101562 -0.300781 12.015625 0.421875 9.484375 0.421875 C 6.859375 0.421875 4.726562 -0.296875 3.09375 -1.734375 Z M 7.015625 -9.796875 C 6.359375 -9.148438 6.03125 -8.320312 6.03125 -7.3125 C 6.03125 -6.300781 6.34375 -5.476562 6.96875 -4.84375 C 7.59375 -4.207031 8.421875 -3.890625 9.453125 -3.890625 C 10.441406 -3.890625 11.253906 -4.210938 11.890625 -4.859375 C 12.535156 -5.503906 12.859375 -6.320312 12.859375 -7.3125 C 12.859375 -8.320312 12.523438 -9.148438 11.859375 -9.796875 C 11.203125 -10.441406 10.398438 -10.765625 9.453125 -10.765625 C 8.484375 -10.765625 7.671875 -10.441406 7.015625 -9.796875 Z M 7.015625 -9.796875 "/></g></g></g><g fill="#e4e2dd" fill-opacity="1"><g transform="translate(199.340662, 177.398763)"><g><path d="M 6.484375 -14.65625 L 6.484375 -7.6875 C 6.484375 -6.238281 6.703125 -5.207031 7.140625 -4.59375 C 7.578125 -3.988281 8.316406 -3.6875 9.359375 -3.6875 C 10.410156 -3.6875 11.15625 -3.988281 11.59375 -4.59375 C 12.03125 -5.207031 12.25 -6.238281 12.25 -7.6875 L 12.25 -14.65625 L 17.3125 -14.65625 L 17.3125 -6.453125 C 17.3125 -4.015625 16.675781 -2.257812 15.40625 -1.1875 C 14.144531 -0.113281 12.132812 0.421875 9.375 0.421875 C 6.613281 0.421875 4.597656 -0.113281 3.328125 -1.1875 C 2.054688 -2.257812 1.421875 -4.015625 1.421875 -6.453125 L 1.421875 -14.65625 Z M 6.484375 -14.65625 "/></g></g></g><g fill="#e4e2dd" fill-opacity="1"><g transform="translate(215.646632, 177.398763)"><g><path d="M 1.71875 0 L 1.71875 -14.65625 L 6.765625 -14.65625 L 6.765625 -13.109375 L 6.828125 -13.109375 C 8.140625 -14.421875 9.539062 -15.078125 11.03125 -15.078125 C 11.75 -15.078125 12.460938 -14.984375 13.171875 -14.796875 C 13.890625 -14.609375 14.578125 -14.3125 15.234375 -13.90625 C 15.890625 -13.507812 16.421875 -12.941406 16.828125 -12.203125 C 17.242188 -11.472656 17.453125 -10.625 17.453125 -9.65625 L 17.453125 0 L 12.390625 0 L 12.390625 -8.28125 C 12.390625 -9.039062 12.144531 -9.707031 11.65625 -10.28125 C 11.175781 -10.851562 10.546875 -11.140625 9.765625 -11.140625 C 9.003906 -11.140625 8.3125 -10.84375 7.6875 -10.25 C 7.070312 -9.664062 6.765625 -9.007812 6.765625 -8.28125 L 6.765625 0 Z M 1.71875 0 "/></g></g></g><g fill="#e4e2dd" fill-opacity="1"><g transform="translate(232.095396, 177.398763)"><g><path d="M 2.578125 -14.65625 L 2.578125 -20.109375 L 7.625 -20.109375 L 7.625 -14.65625 L 10.71875 -14.65625 L 10.71875 -10.796875 L 7.625 -10.796875 L 7.625 -6.140625 C 7.625 -4.785156 8.003906 -4.109375 8.765625 -4.109375 C 8.953125 -4.109375 9.148438 -4.144531 9.359375 -4.21875 C 9.578125 -4.300781 9.742188 -4.378906 9.859375 -4.453125 L 10.03125 -4.5625 L 11.28125 -0.484375 C 10.195312 0.117188 8.957031 0.421875 7.5625 0.421875 C 6.613281 0.421875 5.796875 0.253906 5.109375 -0.078125 C 4.421875 -0.410156 3.898438 -0.851562 3.546875 -1.40625 C 3.203125 -1.96875 2.953125 -2.554688 2.796875 -3.171875 C 2.648438 -3.796875 2.578125 -4.460938 2.578125 -5.171875 L 2.578125 -10.796875 L 0.453125 -10.796875 L 0.453125 -14.65625 Z M 2.578125 -14.65625 "/></g></g></g><g fill="#e4e2dd" fill-opacity="1"><g transform="translate(240.947583, 177.398763)"><g><path d="M 1.71875 0 L 1.71875 -14.65625 L 6.765625 -14.65625 L 6.765625 -12.53125 L 6.828125 -12.53125 C 6.867188 -12.613281 6.929688 -12.710938 7.015625 -12.828125 C 7.097656 -12.941406 7.28125 -13.140625 7.5625 -13.421875 C 7.851562 -13.710938 8.160156 -13.96875 8.484375 -14.1875 C 8.804688 -14.414062 9.222656 -14.617188 9.734375 -14.796875 C 10.253906 -14.984375 10.78125 -15.078125 11.3125 -15.078125 C 11.863281 -15.078125 12.40625 -15 12.9375 -14.84375 C 13.46875 -14.695312 13.859375 -14.546875 14.109375 -14.390625 L 14.515625 -14.171875 L 12.390625 -9.875 C 11.765625 -10.414062 10.890625 -10.6875 9.765625 -10.6875 C 9.160156 -10.6875 8.640625 -10.550781 8.203125 -10.28125 C 7.765625 -10.007812 7.453125 -9.679688 7.265625 -9.296875 C 7.085938 -8.921875 6.957031 -8.597656 6.875 -8.328125 C 6.800781 -8.066406 6.765625 -7.863281 6.765625 -7.71875 L 6.765625 0 Z M 1.71875 0 "/></g></g></g><g fill="#e4e2dd" fill-opacity="1"><g transform="translate(252.741303, 177.398763)"><g><path d="M 12.828125 -14.65625 L 18.65625 -14.65625 L 7.140625 7.421875 L 1.3125 7.421875 L 6.375 -2.28125 L -0.578125 -14.65625 L 5.25 -14.65625 L 9.34375 -7.140625 Z M 12.828125 -14.65625 "/></g></g></g><g fill="#e4e2dd" fill-opacity="1"><g transform="translate(105.97817, 222.39876)"><g/></g></g><g fill="#e4e2dd" fill-opacity="1"><g transform="translate(112.47425, 222.39876)"><g/></g></g><g fill="#e4e2dd" fill-opacity="1"><g transform="translate(118.97033, 222.39876)"><g/></g></g><g fill="#e4e2dd" fill-opacity="1"><g transform="translate(125.46641, 222.39876)"><g/></g></g><g fill="#e4e2dd" fill-opacity="1"><g transform="translate(131.962491, 222.39876)"><g/></g></g><g fill="#e4e2dd" fill-opacity="1"><g transform="translate(138.458572, 222.39876)"><g/></g></g><g fill="#e4e2dd" fill-opacity="1"><g transform="translate(144.954653, 222.39876)"><g/></g></g><g fill="#e4e2dd" fill-opacity="1"><g transform="translate(151.450733, 222.39876)"><g/></g></g><g fill="#e4e2dd" fill-opacity="1"><g transform="translate(157.946812, 222.39876)"><g/></g></g><g fill="#e4e2dd" fill-opacity="1"><g transform="translate(164.44289, 222.39876)"><g/></g></g><g fill="#e4e2dd" fill-opacity="1"><g transform="translate(170.946916, 222.39876)"><g><path d="M 20.3125 -15.515625 C 21.976562 -13.691406 22.8125 -11.46875 22.8125 -8.84375 C 22.8125 -6.21875 21.976562 -4 20.3125 -2.1875 C 18.65625 -0.382812 16.550781 0.515625 14 0.515625 C 11.644531 0.515625 9.707031 -0.320312 8.1875 -2 L 8.125 -2 L 8.125 0 L 2.078125 0 L 2.078125 -29.71875 L 8.1875 -29.71875 L 8.1875 -16.03125 C 9.707031 -17.507812 11.644531 -18.25 14 -18.25 C 16.550781 -18.25 18.65625 -17.335938 20.3125 -15.515625 Z M 15.171875 -5.859375 C 15.929688 -6.628906 16.3125 -7.625 16.3125 -8.84375 C 16.3125 -10.070312 15.910156 -11.078125 15.109375 -11.859375 C 14.316406 -12.640625 13.335938 -13.03125 12.171875 -13.03125 C 11.015625 -13.03125 10.035156 -12.640625 9.234375 -11.859375 C 8.441406 -11.078125 8.046875 -10.070312 8.046875 -8.84375 C 8.046875 -7.644531 8.429688 -6.65625 9.203125 -5.875 C 9.984375 -5.09375 10.972656 -4.703125 12.171875 -4.703125 C 13.410156 -4.703125 14.410156 -5.085938 15.171875 -5.859375 Z M 15.171875 -5.859375 "/></g></g></g><g fill="#e4e2dd" fill-opacity="1"><g transform="translate(191.612051, 222.39876)"><g><path d="M 2.65625 -27.609375 C 3.375 -28.328125 4.226562 -28.6875 5.21875 -28.6875 C 6.207031 -28.6875 7.054688 -28.328125 7.765625 -27.609375 C 8.484375 -26.898438 8.84375 -26.050781 8.84375 -25.0625 C 8.84375 -24.070312 8.484375 -23.21875 7.765625 -22.5 C 7.054688 -21.78125 6.207031 -21.421875 5.21875 -21.421875 C 4.226562 -21.421875 3.375 -21.78125 2.65625 -22.5 C 1.945312 -23.21875 1.59375 -24.070312 1.59375 -25.0625 C 1.59375 -26.050781 1.945312 -26.898438 2.65625 -27.609375 Z M 2.078125 -17.734375 L 2.078125 0 L 8.1875 0 L 8.1875 -17.734375 Z M 2.078125 -17.734375 "/></g></g></g><g fill="#e4e2dd" fill-opacity="1"><g transform="translate(199.110337, 222.39876)"><g><path d="M 22.328125 -17.734375 L 13.890625 -9.265625 L 23.15625 0 L 15.28125 0 L 8.1875 -7.078125 L 8.1875 0 L 2.078125 0 L 2.078125 -29.71875 L 8.1875 -29.71875 L 8.1875 -11.546875 L 14.375 -17.734375 Z M 22.328125 -17.734375 "/></g></g></g><g fill="#e4e2dd" fill-opacity="1"><g transform="translate(218.496802, 222.39876)"><g><path d="M 2.65625 -27.609375 C 3.375 -28.328125 4.226562 -28.6875 5.21875 -28.6875 C 6.207031 -28.6875 7.054688 -28.328125 7.765625 -27.609375 C 8.484375 -26.898438 8.84375 -26.050781 8.84375 -25.0625 C 8.84375 -24.070312 8.484375 -23.21875 7.765625 -22.5 C 7.054688 -21.78125 6.207031 -21.421875 5.21875 -21.421875 C 4.226562 -21.421875 3.375 -21.78125 2.65625 -22.5 C 1.945312 -23.21875 1.59375 -24.070312 1.59375 -25.0625 C 1.59375 -26.050781 1.945312 -26.898438 2.65625 -27.609375 Z M 2.078125 -17.734375 L 2.078125 0 L 8.1875 0 L 8.1875 -17.734375 Z M 2.078125 -17.734375 "/></g></g></g><g fill="#e4e2dd" fill-opacity="1"><g transform="translate(225.995087, 222.39876)"><g><path d="M 2.078125 0 L 2.078125 -17.734375 L 8.1875 -17.734375 L 8.1875 -15.859375 L 8.265625 -15.859375 C 9.847656 -17.453125 11.539062 -18.25 13.34375 -18.25 C 14.21875 -18.25 15.085938 -18.132812 15.953125 -17.90625 C 16.816406 -17.675781 17.644531 -17.316406 18.4375 -16.828125 C 19.226562 -16.347656 19.875 -15.660156 20.375 -14.765625 C 20.875 -13.878906 21.125 -12.851562 21.125 -11.6875 L 21.125 0 L 15 0 L 15 -10.015625 C 15 -10.941406 14.703125 -11.75 14.109375 -12.4375 C 13.523438 -13.132812 12.765625 -13.484375 11.828125 -13.484375 C 10.898438 -13.484375 10.0625 -13.125 9.3125 -12.40625 C 8.5625 -11.695312 8.1875 -10.898438 8.1875 -10.015625 L 8.1875 0 Z M 2.078125 0 "/></g></g></g><g fill="#e4e2dd" fill-opacity="1"><g transform="translate(245.899921, 222.39876)"><g><path d="M 1.28125 4.359375 L 6.296875 1.90625 C 7.210938 3.425781 8.8125 4.1875 11.09375 4.1875 C 12.15625 4.1875 13.140625 3.84375 14.046875 3.15625 C 14.960938 2.476562 15.421875 1.4375 15.421875 0.03125 L 15.421875 -1.28125 C 14.335938 -0.0820312 12.398438 0.515625 9.609375 0.515625 C 7.046875 0.515625 4.9375 -0.382812 3.28125 -2.1875 C 1.625 -4 0.796875 -6.21875 0.796875 -8.84375 C 0.796875 -11.46875 1.625 -13.691406 3.28125 -15.515625 C 4.9375 -17.335938 7.046875 -18.25 9.609375 -18.25 C 11.890625 -18.25 13.789062 -17.546875 15.3125 -16.140625 L 15.421875 -16.140625 L 15.421875 -17.734375 L 21.53125 -17.734375 L 21.53125 0.484375 C 21.53125 3.359375 20.570312 5.578125 18.65625 7.140625 C 16.75 8.710938 14.226562 9.5 11.09375 9.5 C 6.019531 9.5 2.75 7.785156 1.28125 4.359375 Z M 8.484375 -11.859375 C 7.691406 -11.078125 7.296875 -10.070312 7.296875 -8.84375 C 7.296875 -7.625 7.675781 -6.628906 8.4375 -5.859375 C 9.195312 -5.085938 10.195312 -4.703125 11.4375 -4.703125 C 12.632812 -4.703125 13.617188 -5.09375 14.390625 -5.875 C 15.160156 -6.65625 15.546875 -7.644531 15.546875 -8.84375 C 15.546875 -10.070312 15.148438 -11.078125 14.359375 -11.859375 C 13.566406 -12.640625 12.59375 -13.03125 11.4375 -13.03125 C 10.257812 -13.03125 9.273438 -12.640625 8.484375 -11.859375 Z M 8.484375 -11.859375 "/></g></g></g><path stroke-linecap="butt" transform="matrix(0.75, 0, 0, 0.75, 90.574247, 228.073139)" fill="none" stroke-linejoin="miter" d="M -0.0000370697 5.001439 L 84.43226 5.001439 " stroke="#e4e2dd" stroke-width="10" stroke-opacity="1" stroke-miterlimit="4"/><path stroke-linecap="butt" transform="matrix(0, 0.75, -0.75, 0, 98.070394, 171.479446)" fill="none" stroke-linejoin="miter" d="M 0.00136321 5.000109 L 82.46491 5.000109 " stroke="#e4e2dd" stroke-width="10" stroke-opacity="1" stroke-miterlimit="4"/><path stroke-linecap="butt" transform="matrix(-0.75, 0, 0, -0.75, 283.487477, 146.919146)" fill="none" stroke-linejoin="miter" d="M -0.00107222 5.00157 L 84.431225 5.00157 " stroke="#e4e2dd" stroke-width="10" stroke-opacity="1" stroke-miterlimit="4"/><path stroke-linecap="butt" transform="matrix(0, -0.75, 0.75, 0, 275.991344, 203.512837)" fill="none" stroke-linejoin="miter" d="M 0.00149105 5.001125 L 82.465038 5.001125 " stroke="#e4e2dd" stroke-width="10" stroke-opacity="1" stroke-miterlimit="4"/></svg>