<svg xmlns="http://www.w3.org/2000/svg" xmlns:xlink="http://www.w3.org/1999/xlink" width="600" zoomAndPan="magnify" viewBox="0 0 450 225" height="300" preserveAspectRatio="xMidYMid meet" version="1.0"><defs><g/></defs><rect x="-45" width="540" fill="#ffffff" y="-22.5" height="270" fill-opacity="1"/><rect x="-45" width="540" fill="#292929" y="-22.5" height="270" fill-opacity="1"/><g fill="#e4e2dd" fill-opacity="1"><g transform="translate(156.156932, 96.023956)"><g><path d="M 5.203125 -29.65625 L 5.203125 -40.703125 L 15.4375 -40.703125 L 15.4375 -29.65625 L 21.671875 -29.65625 L 21.671875 -21.859375 L 15.4375 -21.859375 L 15.4375 -12.421875 C 15.4375 -9.691406 16.207031 -8.328125 17.75 -8.328125 C 18.132812 -8.328125 18.535156 -8.398438 18.953125 -8.546875 C 19.378906 -8.703125 19.707031 -8.859375 19.9375 -9.015625 L 20.296875 -9.25 L 22.828125 -0.984375 C 20.640625 0.242188 18.132812 0.859375 15.3125 0.859375 C 13.382812 0.859375 11.726562 0.523438 10.34375 -0.140625 C 8.957031 -0.816406 7.90625 -1.722656 7.1875 -2.859375 C 6.476562 -3.992188 5.96875 -5.1875 5.65625 -6.4375 C 5.351562 -7.695312 5.203125 -9.039062 5.203125 -10.46875 L 5.203125 -21.859375 L 0.921875 -21.859375 L 0.921875 -29.65625 Z M 5.203125 -29.65625 "/></g></g></g><g fill="#e4e2dd" fill-opacity="1"><g transform="translate(174.071156, 96.023956)"><g><path d="M 3.46875 0 L 3.46875 -29.65625 L 13.703125 -29.65625 L 13.703125 -25.375 L 13.8125 -25.375 C 13.894531 -25.53125 14.019531 -25.722656 14.1875 -25.953125 C 14.363281 -26.179688 14.738281 -26.582031 15.3125 -27.15625 C 15.894531 -27.738281 16.515625 -28.257812 17.171875 -28.71875 C 17.828125 -29.1875 18.675781 -29.601562 19.71875 -29.96875 C 20.757812 -30.34375 21.816406 -30.53125 22.890625 -30.53125 C 24.003906 -30.53125 25.101562 -30.375 26.1875 -30.0625 C 27.269531 -29.75 28.0625 -29.441406 28.5625 -29.140625 L 29.375 -28.671875 L 25.09375 -20 C 23.820312 -21.082031 22.046875 -21.625 19.765625 -21.625 C 18.535156 -21.625 17.476562 -21.351562 16.59375 -20.8125 C 15.707031 -20.269531 15.078125 -19.613281 14.703125 -18.84375 C 14.335938 -18.070312 14.078125 -17.414062 13.921875 -16.875 C 13.773438 -16.34375 13.703125 -15.921875 13.703125 -15.609375 L 13.703125 0 Z M 3.46875 0 "/></g></g></g><g fill="#e4e2dd" fill-opacity="1"><g transform="translate(197.938301, 96.023956)"><g><path d="M 5.484375 -3.671875 C 2.710938 -6.691406 1.328125 -10.398438 1.328125 -14.796875 C 1.328125 -19.191406 2.710938 -22.910156 5.484375 -25.953125 C 8.265625 -29.003906 11.796875 -30.53125 16.078125 -30.53125 C 20.003906 -30.53125 23.238281 -29.296875 25.78125 -26.828125 L 25.78125 -29.65625 L 36.015625 -29.65625 L 36.015625 0 L 25.90625 0 L 25.90625 -3.359375 L 25.78125 -3.359375 C 23.238281 -0.546875 20.003906 0.859375 16.078125 0.859375 C 11.796875 0.859375 8.265625 -0.648438 5.484375 -3.671875 Z M 14.1875 -19.828125 C 12.863281 -18.515625 12.203125 -16.835938 12.203125 -14.796875 C 12.203125 -12.753906 12.835938 -11.085938 14.109375 -9.796875 C 15.378906 -8.503906 17.054688 -7.859375 19.140625 -7.859375 C 21.140625 -7.859375 22.785156 -8.515625 24.078125 -9.828125 C 25.367188 -11.140625 26.015625 -12.796875 26.015625 -14.796875 C 26.015625 -16.835938 25.347656 -18.515625 24.015625 -19.828125 C 22.691406 -21.140625 21.066406 -21.796875 19.140625 -21.796875 C 17.171875 -21.796875 15.519531 -21.140625 14.1875 -19.828125 Z M 14.1875 -19.828125 "/></g></g></g><g fill="#e4e2dd" fill-opacity="1"><g transform="translate(232.497555, 96.023956)"><g><path d="M 4.453125 -46.1875 C 5.648438 -47.382812 7.078125 -47.984375 8.734375 -47.984375 C 10.390625 -47.984375 11.8125 -47.382812 13 -46.1875 C 14.195312 -45 14.796875 -43.570312 14.796875 -41.90625 C 14.796875 -40.25 14.195312 -38.820312 13 -37.625 C 11.8125 -36.4375 10.390625 -35.84375 8.734375 -35.84375 C 7.078125 -35.84375 5.648438 -36.4375 4.453125 -37.625 C 3.253906 -38.820312 2.65625 -40.25 2.65625 -41.90625 C 2.65625 -43.570312 3.253906 -45 4.453125 -46.1875 Z M 3.46875 -29.65625 L 3.46875 0 L 13.703125 0 L 13.703125 -29.65625 Z M 3.46875 -29.65625 "/></g></g></g><g fill="#e4e2dd" fill-opacity="1"><g transform="translate(245.036832, 96.023956)"><g><path d="M 3.46875 0 L 3.46875 -49.71875 L 13.703125 -49.71875 L 13.703125 0 Z M 3.46875 0 "/></g></g></g><g fill="#e4e2dd" fill-opacity="1"><g transform="translate(257.288135, 96.023956)"><g/></g></g><g fill="#e4e2dd" fill-opacity="1"><g transform="translate(268.151344, 96.023956)"><g/></g></g><g fill="#e4e2dd" fill-opacity="1"><g transform="translate(279.014552, 96.023956)"><g/></g></g><g fill="#e4e2dd" fill-opacity="1"><g transform="translate(289.87776, 96.023956)"><g/></g></g><g fill="#e4e2dd" fill-opacity="1"><g transform="translate(300.740969, 96.023956)"><g/></g></g><g fill="#e4e2dd" fill-opacity="1"><g transform="translate(311.604174, 96.023956)"><g/></g></g><g fill="#e4e2dd" fill-opacity="1"><g transform="translate(322.46738, 96.023956)"><g/></g></g><g fill="#e4e2dd" fill-opacity="1"><g transform="translate(333.330586, 96.023956)"><g/></g></g><g fill="#e4e2dd" fill-opacity="1"><g transform="translate(344.193792, 96.023956)"><g/></g></g><g fill="#e4e2dd" fill-opacity="1"><g transform="translate(355.056997, 96.023956)"><g/></g></g><g fill="#e4e2dd" fill-opacity="1"><g transform="translate(81.447582, 175.913654)"><g/></g></g><g fill="#e4e2dd" fill-opacity="1"><g transform="translate(92.31079, 175.913654)"><g/></g></g><g fill="#e4e2dd" fill-opacity="1"><g transform="translate(103.173999, 175.913654)"><g/></g></g><g fill="#e4e2dd" fill-opacity="1"><g transform="translate(114.037207, 175.913654)"><g/></g></g><g fill="#e4e2dd" fill-opacity="1"><g transform="translate(124.900415, 175.913654)"><g/></g></g><g fill="#e4e2dd" fill-opacity="1"><g transform="translate(135.763621, 175.913654)"><g/></g></g><g fill="#e4e2dd" fill-opacity="1"><g transform="translate(146.626827, 175.913654)"><g/></g></g><g fill="#e4e2dd" fill-opacity="1"><g transform="translate(157.509232, 175.913654)"><g><path d="M 5.203125 -29.65625 L 5.203125 -35.953125 C 5.242188 -40.390625 6.285156 -43.9375 8.328125 -46.59375 C 10.367188 -49.25 13.203125 -50.578125 16.828125 -50.578125 C 18.367188 -50.578125 19.84375 -50.351562 21.25 -49.90625 C 22.65625 -49.46875 23.664062 -49.019531 24.28125 -48.5625 L 25.265625 -47.921875 L 21.671875 -40.703125 C 20.753906 -41.242188 19.734375 -41.515625 18.609375 -41.515625 C 17.335938 -41.515625 16.488281 -41.078125 16.0625 -40.203125 C 15.644531 -39.335938 15.4375 -37.828125 15.4375 -35.671875 L 15.4375 -29.65625 L 22.25 -29.65625 L 22.25 -21.859375 L 15.4375 -21.859375 L 15.4375 0 L 5.203125 0 L 5.203125 -21.859375 L 0.921875 -21.859375 L 0.921875 -29.65625 Z M 5.203125 -29.65625 "/></g></g></g><g fill="#e4e2dd" fill-opacity="1"><g transform="translate(174.26756, 175.913654)"><g><path d="M 4.453125 -46.1875 C 5.648438 -47.382812 7.078125 -47.984375 8.734375 -47.984375 C 10.390625 -47.984375 11.8125 -47.382812 13 -46.1875 C 14.195312 -45 14.796875 -43.570312 14.796875 -41.90625 C 14.796875 -40.25 14.195312 -38.820312 13 -37.625 C 11.8125 -36.4375 10.390625 -35.84375 8.734375 -35.84375 C 7.078125 -35.84375 5.648438 -36.4375 4.453125 -37.625 C 3.253906 -38.820312 2.65625 -40.25 2.65625 -41.90625 C 2.65625 -43.570312 3.253906 -45 4.453125 -46.1875 Z M 3.46875 -29.65625 L 3.46875 0 L 13.703125 0 L 13.703125 -29.65625 Z M 3.46875 -29.65625 "/></g></g></g><g fill="#e4e2dd" fill-opacity="1"><g transform="translate(186.806839, 175.913654)"><g><path d="M 3.46875 0 L 3.46875 -29.65625 L 13.703125 -29.65625 L 13.703125 -26.53125 L 13.8125 -26.53125 C 16.476562 -29.195312 19.3125 -30.53125 22.3125 -30.53125 C 23.78125 -30.53125 25.234375 -30.335938 26.671875 -29.953125 C 28.117188 -29.566406 29.507812 -28.96875 30.84375 -28.15625 C 32.175781 -27.34375 33.253906 -26.191406 34.078125 -24.703125 C 34.910156 -23.222656 35.328125 -21.503906 35.328125 -19.546875 L 35.328125 0 L 25.09375 0 L 25.09375 -16.765625 C 25.09375 -18.304688 24.597656 -19.65625 23.609375 -20.8125 C 22.628906 -21.96875 21.347656 -22.546875 19.765625 -22.546875 C 18.222656 -22.546875 16.828125 -21.945312 15.578125 -20.75 C 14.328125 -19.5625 13.703125 -18.234375 13.703125 -16.765625 L 13.703125 0 Z M 3.46875 0 "/></g></g></g><g fill="#e4e2dd" fill-opacity="1"><g transform="translate(220.094594, 175.913654)"><g><path d="M 5.484375 -3.671875 C 2.710938 -6.691406 1.328125 -10.398438 1.328125 -14.796875 C 1.328125 -19.191406 2.710938 -22.910156 5.484375 -25.953125 C 8.265625 -29.003906 11.796875 -30.53125 16.078125 -30.53125 C 20.003906 -30.53125 23.238281 -29.296875 25.78125 -26.828125 L 25.78125 -49.71875 L 36.015625 -49.71875 L 36.015625 0 L 25.90625 0 L 25.90625 -3.359375 L 25.78125 -3.359375 C 23.238281 -0.546875 20.003906 0.859375 16.078125 0.859375 C 11.796875 0.859375 8.265625 -0.648438 5.484375 -3.671875 Z M 14.1875 -19.828125 C 12.863281 -18.515625 12.203125 -16.835938 12.203125 -14.796875 C 12.203125 -12.753906 12.835938 -11.085938 14.109375 -9.796875 C 15.378906 -8.503906 17.054688 -7.859375 19.140625 -7.859375 C 21.140625 -7.859375 22.785156 -8.515625 24.078125 -9.828125 C 25.367188 -11.140625 26.015625 -12.796875 26.015625 -14.796875 C 26.015625 -16.835938 25.347656 -18.515625 24.015625 -19.828125 C 22.691406 -21.140625 21.066406 -21.796875 19.140625 -21.796875 C 17.171875 -21.796875 15.519531 -21.140625 14.1875 -19.828125 Z M 14.1875 -19.828125 "/></g></g></g><g fill="#e4e2dd" fill-opacity="1"><g transform="translate(254.653843, 175.913654)"><g><path d="M 33.46875 -13.40625 L 11.96875 -13.40625 C 11.96875 -11.332031 12.640625 -9.789062 13.984375 -8.78125 C 15.335938 -7.78125 16.804688 -7.28125 18.390625 -7.28125 C 20.046875 -7.28125 21.351562 -7.5 22.3125 -7.9375 C 23.28125 -8.382812 24.378906 -9.265625 25.609375 -10.578125 L 33.015625 -6.875 C 29.929688 -1.71875 24.800781 0.859375 17.625 0.859375 C 13.15625 0.859375 9.320312 -0.671875 6.125 -3.734375 C 2.925781 -6.796875 1.328125 -10.484375 1.328125 -14.796875 C 1.328125 -19.117188 2.925781 -22.820312 6.125 -25.90625 C 9.320312 -28.988281 13.15625 -30.53125 17.625 -30.53125 C 22.332031 -30.53125 26.160156 -29.171875 29.109375 -26.453125 C 32.054688 -23.734375 33.53125 -19.847656 33.53125 -14.796875 C 33.53125 -14.109375 33.507812 -13.644531 33.46875 -13.40625 Z M 12.25 -19.078125 L 23.53125 -19.078125 C 23.300781 -20.617188 22.691406 -21.800781 21.703125 -22.625 C 20.722656 -23.457031 19.460938 -23.875 17.921875 -23.875 C 16.222656 -23.875 14.875 -23.429688 13.875 -22.546875 C 12.875 -21.660156 12.332031 -20.503906 12.25 -19.078125 Z M 12.25 -19.078125 "/></g></g></g><g fill="#e4e2dd" fill-opacity="1"><g transform="translate(284.58947, 175.913654)"><g><path d="M 3.46875 0 L 3.46875 -29.65625 L 13.703125 -29.65625 L 13.703125 -25.375 L 13.8125 -25.375 C 13.894531 -25.53125 14.019531 -25.722656 14.1875 -25.953125 C 14.363281 -26.179688 14.738281 -26.582031 15.3125 -27.15625 C 15.894531 -27.738281 16.515625 -28.257812 17.171875 -28.71875 C 17.828125 -29.1875 18.675781 -29.601562 19.71875 -29.96875 C 20.757812 -30.34375 21.816406 -30.53125 22.890625 -30.53125 C 24.003906 -30.53125 25.101562 -30.375 26.1875 -30.0625 C 27.269531 -29.75 28.0625 -29.441406 28.5625 -29.140625 L 29.375 -28.671875 L 25.09375 -20 C 23.820312 -21.082031 22.046875 -21.625 19.765625 -21.625 C 18.535156 -21.625 17.476562 -21.351562 16.59375 -20.8125 C 15.707031 -20.269531 15.078125 -19.613281 14.703125 -18.84375 C 14.335938 -18.070312 14.078125 -17.414062 13.921875 -16.875 C 13.773438 -16.34375 13.703125 -15.921875 13.703125 -15.609375 L 13.703125 0 Z M 3.46875 0 "/></g></g></g><g fill="#e4e2dd" fill-opacity="1"><g transform="translate(308.456613, 175.913654)"><g><path d="M 16.359375 -30.53125 C 18.054688 -30.53125 19.734375 -30.335938 21.390625 -29.953125 C 23.046875 -29.566406 24.28125 -29.179688 25.09375 -28.796875 L 26.296875 -28.21875 L 22.953125 -21.5 C 20.640625 -22.738281 18.441406 -23.359375 16.359375 -23.359375 C 15.203125 -23.359375 14.382812 -23.234375 13.90625 -22.984375 C 13.425781 -22.734375 13.1875 -22.257812 13.1875 -21.5625 C 13.1875 -21.40625 13.203125 -21.25 13.234375 -21.09375 C 13.273438 -20.945312 13.351562 -20.804688 13.46875 -20.671875 C 13.582031 -20.535156 13.6875 -20.414062 13.78125 -20.3125 C 13.882812 -20.21875 14.050781 -20.113281 14.28125 -20 C 14.507812 -19.882812 14.691406 -19.796875 14.828125 -19.734375 C 14.960938 -19.679688 15.179688 -19.597656 15.484375 -19.484375 C 15.796875 -19.367188 16.03125 -19.28125 16.1875 -19.21875 C 16.34375 -19.164062 16.601562 -19.078125 16.96875 -18.953125 C 17.332031 -18.835938 17.613281 -18.765625 17.8125 -18.734375 C 19 -18.378906 20.035156 -17.988281 20.921875 -17.5625 C 21.804688 -17.144531 22.738281 -16.566406 23.71875 -15.828125 C 24.707031 -15.097656 25.472656 -14.175781 26.015625 -13.0625 C 26.554688 -11.945312 26.828125 -10.675781 26.828125 -9.25 C 26.828125 -2.507812 22.144531 0.859375 12.78125 0.859375 C 10.65625 0.859375 8.640625 0.535156 6.734375 -0.109375 C 4.828125 -0.765625 3.445312 -1.421875 2.59375 -2.078125 L 1.328125 -3.125 L 5.484375 -10.109375 C 5.796875 -9.847656 6.203125 -9.53125 6.703125 -9.15625 C 7.203125 -8.789062 8.109375 -8.289062 9.421875 -7.65625 C 10.734375 -7.019531 11.867188 -6.703125 12.828125 -6.703125 C 14.953125 -6.703125 16.015625 -7.414062 16.015625 -8.84375 C 16.015625 -9.5 15.742188 -10.007812 15.203125 -10.375 C 14.660156 -10.738281 13.742188 -11.148438 12.453125 -11.609375 C 11.160156 -12.078125 10.148438 -12.503906 9.421875 -12.890625 C 7.566406 -13.859375 6.097656 -14.945312 5.015625 -16.15625 C 3.941406 -17.375 3.40625 -18.984375 3.40625 -20.984375 C 3.40625 -23.992188 4.570312 -26.335938 6.90625 -28.015625 C 9.238281 -29.691406 12.390625 -30.53125 16.359375 -30.53125 Z M 16.359375 -30.53125 "/></g></g></g><path stroke-linecap="butt" transform="matrix(1.331495, 0, 0, 1.331495, 37.113756, 180.040154)" fill="none" stroke-linejoin="miter" d="M -0.000356474 5.001194 L 84.432464 5.001194 " stroke="#e4e2dd" stroke-width="10" stroke-opacity="1" stroke-miterlimit="4"/><path stroke-linecap="butt" transform="matrix(0, 1.331495, -1.331495, 0, 50.421883, 79.567857)" fill="none" stroke-linejoin="miter" d="M -0.00108963 4.999087 L 82.463196 4.999087 " stroke="#e4e2dd" stroke-width="10" stroke-opacity="1" stroke-miterlimit="4"/><path stroke-linecap="butt" transform="matrix(-1.331495, 0, 0, -1.331495, 433.664046, 42.8801)" fill="none" stroke-linejoin="miter" d="M -0.0000124442 4.999977 L 84.432808 4.999977 " stroke="#e4e2dd" stroke-width="10" stroke-opacity="1" stroke-miterlimit="4"/><path stroke-linecap="butt" transform="matrix(0, -1.331495, 1.331495, 0, 420.35595, 143.352381)" fill="none" stroke-linejoin="miter" d="M 0.000614593 4.998718 L 82.461967 4.998718 " stroke="#e4e2dd" stroke-width="10" stroke-opacity="1" stroke-miterlimit="4"/></svg>