<svg xmlns="http://www.w3.org/2000/svg" xmlns:xlink="http://www.w3.org/1999/xlink" width="500" zoomAndPan="magnify" viewBox="0 0 375 374.999991" height="500" preserveAspectRatio="xMidYMid meet" version="1.0"><defs><g/></defs><rect x="-37.5" width="450" fill="#ffffff" y="-37.499999" height="449.999989" fill-opacity="1"/><rect x="-37.5" width="450" fill="#292929" y="-37.499999" height="449.999989" fill-opacity="1"/><g fill="#e4e2dd" fill-opacity="1"><g transform="translate(139.713137, 166.796472)"><g><path d="M 4.6875 -26.71875 L 4.6875 -36.671875 L 13.90625 -36.671875 L 13.90625 -26.71875 L 19.53125 -26.71875 L 19.53125 -19.6875 L 13.90625 -19.6875 L 13.90625 -11.203125 C 13.90625 -8.734375 14.601562 -7.5 16 -7.5 C 16.34375 -7.5 16.703125 -7.566406 17.078125 -7.703125 C 17.460938 -7.847656 17.757812 -7.988281 17.96875 -8.125 L 18.28125 -8.328125 L 20.578125 -0.890625 C 18.597656 0.222656 16.34375 0.78125 13.8125 0.78125 C 12.070312 0.78125 10.578125 0.476562 9.328125 -0.125 C 8.078125 -0.738281 7.128906 -1.554688 6.484375 -2.578125 C 5.835938 -3.597656 5.375 -4.671875 5.09375 -5.796875 C 4.820312 -6.929688 4.6875 -8.140625 4.6875 -9.421875 L 4.6875 -19.6875 L 0.828125 -19.6875 L 0.828125 -26.71875 Z M 4.6875 -26.71875 "/></g></g></g><g fill="#e4e2dd" fill-opacity="1"><g transform="translate(155.855644, 166.796472)"><g><path d="M 3.125 0 L 3.125 -26.71875 L 12.34375 -26.71875 L 12.34375 -22.875 L 12.453125 -22.875 C 12.515625 -23.007812 12.625 -23.179688 12.78125 -23.390625 C 12.9375 -23.597656 13.273438 -23.960938 13.796875 -24.484375 C 14.328125 -25.003906 14.882812 -25.472656 15.46875 -25.890625 C 16.0625 -26.304688 16.828125 -26.675781 17.765625 -27 C 18.703125 -27.332031 19.65625 -27.5 20.625 -27.5 C 21.632812 -27.5 22.625 -27.359375 23.59375 -27.078125 C 24.570312 -26.804688 25.285156 -26.53125 25.734375 -26.25 L 26.46875 -25.84375 L 22.609375 -18.03125 C 21.460938 -19 19.863281 -19.484375 17.8125 -19.484375 C 16.707031 -19.484375 15.753906 -19.238281 14.953125 -18.75 C 14.148438 -18.269531 13.582031 -17.679688 13.25 -16.984375 C 12.925781 -16.285156 12.691406 -15.691406 12.546875 -15.203125 C 12.410156 -14.722656 12.34375 -14.34375 12.34375 -14.0625 L 12.34375 0 Z M 3.125 0 "/></g></g></g><g fill="#e4e2dd" fill-opacity="1"><g transform="translate(177.36233, 166.796472)"><g><path d="M 4.953125 -3.296875 C 2.453125 -6.023438 1.203125 -9.367188 1.203125 -13.328125 C 1.203125 -17.296875 2.453125 -20.648438 4.953125 -23.390625 C 7.453125 -26.128906 10.628906 -27.5 14.484375 -27.5 C 18.023438 -27.5 20.941406 -26.390625 23.234375 -24.171875 L 23.234375 -26.71875 L 32.453125 -26.71875 L 32.453125 0 L 23.34375 0 L 23.34375 -3.015625 L 23.234375 -3.015625 C 20.941406 -0.484375 18.023438 0.78125 14.484375 0.78125 C 10.628906 0.78125 7.453125 -0.578125 4.953125 -3.296875 Z M 12.78125 -17.859375 C 11.582031 -16.679688 10.984375 -15.171875 10.984375 -13.328125 C 10.984375 -11.492188 11.554688 -9.992188 12.703125 -8.828125 C 13.859375 -7.660156 15.375 -7.078125 17.25 -7.078125 C 19.050781 -7.078125 20.53125 -7.664062 21.6875 -8.84375 C 22.851562 -10.03125 23.4375 -11.53125 23.4375 -13.34375 C 23.4375 -15.175781 22.835938 -16.679688 21.640625 -17.859375 C 20.441406 -19.046875 18.976562 -19.640625 17.25 -19.640625 C 15.476562 -19.640625 13.988281 -19.046875 12.78125 -17.859375 Z M 12.78125 -17.859375 "/></g></g></g><g fill="#e4e2dd" fill-opacity="1"><g transform="translate(208.503676, 166.796472)"><g><path d="M 4 -41.625 C 5.082031 -42.695312 6.367188 -43.234375 7.859375 -43.234375 C 9.359375 -43.234375 10.644531 -42.695312 11.71875 -41.625 C 12.800781 -40.550781 13.34375 -39.265625 13.34375 -37.765625 C 13.34375 -36.273438 12.800781 -34.988281 11.71875 -33.90625 C 10.644531 -32.832031 9.359375 -32.296875 7.859375 -32.296875 C 6.367188 -32.296875 5.082031 -32.832031 4 -33.90625 C 2.925781 -34.988281 2.390625 -36.273438 2.390625 -37.765625 C 2.390625 -39.265625 2.925781 -40.550781 4 -41.625 Z M 3.125 -26.71875 L 3.125 0 L 12.34375 0 L 12.34375 -26.71875 Z M 3.125 -26.71875 "/></g></g></g><g fill="#e4e2dd" fill-opacity="1"><g transform="translate(219.802819, 166.796472)"><g><path d="M 3.125 0 L 3.125 -44.796875 L 12.34375 -44.796875 L 12.34375 0 Z M 3.125 0 "/></g></g></g><g fill="#e4e2dd" fill-opacity="1"><g transform="translate(230.842469, 166.796472)"><g/></g></g><g fill="#e4e2dd" fill-opacity="1"><g transform="translate(240.631307, 166.796472)"><g/></g></g><g fill="#e4e2dd" fill-opacity="1"><g transform="translate(250.420144, 166.796472)"><g/></g></g><g fill="#e4e2dd" fill-opacity="1"><g transform="translate(260.208982, 166.796472)"><g/></g></g><g fill="#e4e2dd" fill-opacity="1"><g transform="translate(269.997819, 166.796472)"><g/></g></g><g fill="#e4e2dd" fill-opacity="1"><g transform="translate(279.786654, 166.796472)"><g/></g></g><g fill="#e4e2dd" fill-opacity="1"><g transform="translate(289.57549, 166.796472)"><g/></g></g><g fill="#e4e2dd" fill-opacity="1"><g transform="translate(299.364325, 166.796472)"><g/></g></g><g fill="#e4e2dd" fill-opacity="1"><g transform="translate(309.15316, 166.796472)"><g/></g></g><g fill="#e4e2dd" fill-opacity="1"><g transform="translate(318.941996, 166.796472)"><g/></g></g><g fill="#e4e2dd" fill-opacity="1"><g transform="translate(72.392538, 238.785083)"><g/></g></g><g fill="#e4e2dd" fill-opacity="1"><g transform="translate(82.181375, 238.785083)"><g/></g></g><g fill="#e4e2dd" fill-opacity="1"><g transform="translate(91.970213, 238.785083)"><g/></g></g><g fill="#e4e2dd" fill-opacity="1"><g transform="translate(101.75905, 238.785083)"><g/></g></g><g fill="#e4e2dd" fill-opacity="1"><g transform="translate(111.547888, 238.785083)"><g/></g></g><g fill="#e4e2dd" fill-opacity="1"><g transform="translate(121.336723, 238.785083)"><g/></g></g><g fill="#e4e2dd" fill-opacity="1"><g transform="translate(131.125558, 238.785083)"><g/></g></g><g fill="#e4e2dd" fill-opacity="1"><g transform="translate(140.931694, 238.785083)"><g><path d="M 4.6875 -26.71875 L 4.6875 -32.40625 C 4.71875 -36.394531 5.65625 -39.585938 7.5 -41.984375 C 9.34375 -44.378906 11.894531 -45.578125 15.15625 -45.578125 C 16.550781 -45.578125 17.878906 -45.378906 19.140625 -44.984375 C 20.410156 -44.585938 21.320312 -44.179688 21.875 -43.765625 L 22.765625 -43.1875 L 19.53125 -36.671875 C 18.695312 -37.160156 17.78125 -37.40625 16.78125 -37.40625 C 15.632812 -37.40625 14.867188 -37.015625 14.484375 -36.234375 C 14.097656 -35.453125 13.90625 -34.085938 13.90625 -32.140625 L 13.90625 -26.71875 L 20.0625 -26.71875 L 20.0625 -19.6875 L 13.90625 -19.6875 L 13.90625 0 L 4.6875 0 L 4.6875 -19.6875 L 0.828125 -19.6875 L 0.828125 -26.71875 Z M 4.6875 -26.71875 "/></g></g></g><g fill="#e4e2dd" fill-opacity="1"><g transform="translate(156.032624, 238.785083)"><g><path d="M 4 -41.625 C 5.082031 -42.695312 6.367188 -43.234375 7.859375 -43.234375 C 9.359375 -43.234375 10.644531 -42.695312 11.71875 -41.625 C 12.800781 -40.550781 13.34375 -39.265625 13.34375 -37.765625 C 13.34375 -36.273438 12.800781 -34.988281 11.71875 -33.90625 C 10.644531 -32.832031 9.359375 -32.296875 7.859375 -32.296875 C 6.367188 -32.296875 5.082031 -32.832031 4 -33.90625 C 2.925781 -34.988281 2.390625 -36.273438 2.390625 -37.765625 C 2.390625 -39.265625 2.925781 -40.550781 4 -41.625 Z M 3.125 -26.71875 L 3.125 0 L 12.34375 0 L 12.34375 -26.71875 Z M 3.125 -26.71875 "/></g></g></g><g fill="#e4e2dd" fill-opacity="1"><g transform="translate(167.33177, 238.785083)"><g><path d="M 3.125 0 L 3.125 -26.71875 L 12.34375 -26.71875 L 12.34375 -23.90625 L 12.453125 -23.90625 C 14.847656 -26.300781 17.398438 -27.5 20.109375 -27.5 C 21.429688 -27.5 22.742188 -27.328125 24.046875 -26.984375 C 25.347656 -26.640625 26.597656 -26.101562 27.796875 -25.375 C 28.992188 -24.644531 29.960938 -23.609375 30.703125 -22.265625 C 31.453125 -20.929688 31.828125 -19.378906 31.828125 -17.609375 L 31.828125 0 L 22.609375 0 L 22.609375 -15.109375 C 22.609375 -16.492188 22.164062 -17.707031 21.28125 -18.75 C 20.394531 -19.789062 19.238281 -20.3125 17.8125 -20.3125 C 16.425781 -20.3125 15.164062 -19.773438 14.03125 -18.703125 C 12.90625 -17.628906 12.34375 -16.429688 12.34375 -15.109375 L 12.34375 0 Z M 3.125 0 "/></g></g></g><g fill="#e4e2dd" fill-opacity="1"><g transform="translate(197.327367, 238.785083)"><g><path d="M 4.953125 -3.296875 C 2.453125 -6.023438 1.203125 -9.367188 1.203125 -13.328125 C 1.203125 -17.296875 2.453125 -20.648438 4.953125 -23.390625 C 7.453125 -26.128906 10.628906 -27.5 14.484375 -27.5 C 18.023438 -27.5 20.941406 -26.390625 23.234375 -24.171875 L 23.234375 -44.796875 L 32.453125 -44.796875 L 32.453125 0 L 23.34375 0 L 23.34375 -3.015625 L 23.234375 -3.015625 C 20.941406 -0.484375 18.023438 0.78125 14.484375 0.78125 C 10.628906 0.78125 7.453125 -0.578125 4.953125 -3.296875 Z M 12.78125 -17.859375 C 11.582031 -16.679688 10.984375 -15.171875 10.984375 -13.328125 C 10.984375 -11.492188 11.554688 -9.992188 12.703125 -8.828125 C 13.859375 -7.660156 15.375 -7.078125 17.25 -7.078125 C 19.050781 -7.078125 20.53125 -7.664062 21.6875 -8.84375 C 22.851562 -10.03125 23.4375 -11.53125 23.4375 -13.34375 C 23.4375 -15.175781 22.835938 -16.679688 21.640625 -17.859375 C 20.441406 -19.046875 18.976562 -19.640625 17.25 -19.640625 C 15.476562 -19.640625 13.988281 -19.046875 12.78125 -17.859375 Z M 12.78125 -17.859375 "/></g></g></g><g fill="#e4e2dd" fill-opacity="1"><g transform="translate(228.468708, 238.785083)"><g><path d="M 30.15625 -12.078125 L 10.78125 -12.078125 C 10.78125 -10.203125 11.390625 -8.8125 12.609375 -7.90625 C 13.828125 -7.007812 15.144531 -6.5625 16.5625 -6.5625 C 18.0625 -6.5625 19.242188 -6.757812 20.109375 -7.15625 C 20.972656 -7.5625 21.960938 -8.351562 23.078125 -9.53125 L 29.75 -6.203125 C 26.96875 -1.546875 22.347656 0.78125 15.890625 0.78125 C 11.859375 0.78125 8.398438 -0.597656 5.515625 -3.359375 C 2.640625 -6.117188 1.203125 -9.441406 1.203125 -13.328125 C 1.203125 -17.222656 2.640625 -20.554688 5.515625 -23.328125 C 8.398438 -26.109375 11.859375 -27.5 15.890625 -27.5 C 20.128906 -27.5 23.578125 -26.273438 26.234375 -23.828125 C 28.890625 -21.378906 30.21875 -17.882812 30.21875 -13.34375 C 30.21875 -12.707031 30.195312 -12.285156 30.15625 -12.078125 Z M 11.046875 -17.1875 L 21.203125 -17.1875 C 20.992188 -18.582031 20.445312 -19.648438 19.5625 -20.390625 C 18.675781 -21.140625 17.539062 -21.515625 16.15625 -21.515625 C 14.625 -21.515625 13.40625 -21.113281 12.5 -20.3125 C 11.59375 -19.519531 11.109375 -18.476562 11.046875 -17.1875 Z M 11.046875 -17.1875 "/></g></g></g><g fill="#e4e2dd" fill-opacity="1"><g transform="translate(255.443703, 238.785083)"><g><path d="M 3.125 0 L 3.125 -26.71875 L 12.34375 -26.71875 L 12.34375 -22.875 L 12.453125 -22.875 C 12.515625 -23.007812 12.625 -23.179688 12.78125 -23.390625 C 12.9375 -23.597656 13.273438 -23.960938 13.796875 -24.484375 C 14.328125 -25.003906 14.882812 -25.472656 15.46875 -25.890625 C 16.0625 -26.304688 16.828125 -26.675781 17.765625 -27 C 18.703125 -27.332031 19.65625 -27.5 20.625 -27.5 C 21.632812 -27.5 22.625 -27.359375 23.59375 -27.078125 C 24.570312 -26.804688 25.285156 -26.53125 25.734375 -26.25 L 26.46875 -25.84375 L 22.609375 -18.03125 C 21.460938 -19 19.863281 -19.484375 17.8125 -19.484375 C 16.707031 -19.484375 15.753906 -19.238281 14.953125 -18.75 C 14.148438 -18.269531 13.582031 -17.679688 13.25 -16.984375 C 12.925781 -16.285156 12.691406 -15.691406 12.546875 -15.203125 C 12.410156 -14.722656 12.34375 -14.34375 12.34375 -14.0625 L 12.34375 0 Z M 3.125 0 "/></g></g></g><g fill="#e4e2dd" fill-opacity="1"><g transform="translate(276.950387, 238.785083)"><g><path d="M 14.75 -27.5 C 16.269531 -27.5 17.773438 -27.328125 19.265625 -26.984375 C 20.765625 -26.640625 21.878906 -26.289062 22.609375 -25.9375 L 23.703125 -25.421875 L 20.6875 -19.375 C 18.601562 -20.488281 16.625 -21.046875 14.75 -21.046875 C 13.707031 -21.046875 12.96875 -20.929688 12.53125 -20.703125 C 12.09375 -20.484375 11.875 -20.0625 11.875 -19.4375 C 11.875 -19.289062 11.890625 -19.148438 11.921875 -19.015625 C 11.960938 -18.878906 12.035156 -18.75 12.140625 -18.625 C 12.242188 -18.5 12.335938 -18.394531 12.421875 -18.3125 C 12.503906 -18.226562 12.648438 -18.132812 12.859375 -18.03125 C 13.078125 -17.925781 13.242188 -17.847656 13.359375 -17.796875 C 13.484375 -17.742188 13.679688 -17.664062 13.953125 -17.5625 C 14.234375 -17.457031 14.441406 -17.378906 14.578125 -17.328125 C 14.722656 -17.273438 14.957031 -17.195312 15.28125 -17.09375 C 15.613281 -16.988281 15.867188 -16.914062 16.046875 -16.875 C 17.117188 -16.5625 18.054688 -16.210938 18.859375 -15.828125 C 19.660156 -15.453125 20.503906 -14.929688 21.390625 -14.265625 C 22.273438 -13.609375 22.957031 -12.773438 23.4375 -11.765625 C 23.925781 -10.765625 24.171875 -9.617188 24.171875 -8.328125 C 24.171875 -2.253906 19.953125 0.78125 11.515625 0.78125 C 9.597656 0.78125 7.78125 0.488281 6.0625 -0.09375 C 4.34375 -0.6875 3.101562 -1.28125 2.34375 -1.875 L 1.203125 -2.8125 L 4.953125 -9.109375 C 5.222656 -8.867188 5.582031 -8.582031 6.03125 -8.25 C 6.488281 -7.925781 7.304688 -7.476562 8.484375 -6.90625 C 9.671875 -6.332031 10.695312 -6.046875 11.5625 -6.046875 C 13.476562 -6.046875 14.4375 -6.6875 14.4375 -7.96875 C 14.4375 -8.5625 14.191406 -9.019531 13.703125 -9.34375 C 13.210938 -9.675781 12.382812 -10.050781 11.21875 -10.46875 C 10.0625 -10.882812 9.148438 -11.265625 8.484375 -11.609375 C 6.816406 -12.484375 5.5 -13.46875 4.53125 -14.5625 C 3.5625 -15.65625 3.078125 -17.101562 3.078125 -18.90625 C 3.078125 -21.613281 4.125 -23.722656 6.21875 -25.234375 C 8.320312 -26.742188 11.164062 -27.5 14.75 -27.5 Z M 14.75 -27.5 "/></g></g></g><path stroke-linecap="butt" transform="matrix(1.19981, 0, 0, 1.19981, 32.443325, 242.503446)" fill="none" stroke-linejoin="miter" d="M -0.00159922 5.001175 L 84.43233 5.001175 " stroke="#e4e2dd" stroke-width="10" stroke-opacity="1" stroke-miterlimit="4"/><path stroke-linecap="butt" transform="matrix(0, 1.19981, -1.19981, 0, 44.435274, 151.967875)" fill="none" stroke-linejoin="miter" d="M 0.000729431 4.998936 L 82.464946 4.998936 " stroke="#e4e2dd" stroke-width="10" stroke-opacity="1" stroke-miterlimit="4"/><path stroke-linecap="butt" transform="matrix(-1.19981, 0, 0, -1.19981, 341.062365, 112.689156)" fill="none" stroke-linejoin="miter" d="M -0.000112932 4.998915 L 84.433816 4.998915 " stroke="#e4e2dd" stroke-width="10" stroke-opacity="1" stroke-miterlimit="4"/><path stroke-linecap="butt" transform="matrix(0, -1.19981, 1.19981, 0, 329.070422, 203.224717)" fill="none" stroke-linejoin="miter" d="M -0.00153811 5.0007 L 82.462678 5.0007 " stroke="#e4e2dd" stroke-width="10" stroke-opacity="1" stroke-miterlimit="4"/></svg>